This Argentine film freshens up an old cinematic device: juxtaposing science fiction and religion. A Buenos Aires mental hospital is thrown into an uproar when a mysterious male patient appears out of nowhere. As the psychiatrists grill the stranger, he sticks to a story that suggests that his origins are far from earthly. In fact, if his seemingly supernatural powers are any proof, he may well be a space alien. Unable to comprehend the incomprehensible, the authorities decide to lock the visitor away from public view, maybe even put an end to his life--and the analogies to Christ and Christianity are lost on no one. 

   General
      Complete name : Hombre mirando al sudeste.avi
      Format : AVI
      Format/Info : Audio Video Interleave
      File size : 1.26 GiB
      Duration : 1h 43mn
      Overall bit rate : 1 732 Kbps
      Writing application : FairUse Wizard - http://fairusewizard.com
      Writing library : The best and REALLY easy backup tool
   Video #0
      ID : 0
      Format : MPEG-4 Visual
      Format profile : AdvancedSimple@L5
      Format settings, BVOP : Yes
      Format settings, QPel : No
      Format settings, GMC : No warppoints
      Format settings, Matrix : Default (MPEG)
      Muxing mode : Packed bitstream
      Codec ID : XVID
      Codec ID/Hint : XviD
      Duration : 1h 43mn
      Bit rate : 1 528 Kbps
      Width : 608 pixels
      Height : 448 pixels
      Display aspect ratio : 4:3
      Frame rate : 29.970 fps
      Resolution : 24 bits
      Colorimetry : 4:2:0
      Scan type : Progressive
      Bits/(Pixel*Frame) : 0.187
      Stream size : 1.11 GiB (88%)
      Writing library : XviD 1.2.1 (UTC 2008-12-04)
   Audio #1
      ID : 1
      Format : MPEG Audio
      Format version : Version 1
      Format profile : Layer 3
      Codec ID : 55
      Codec ID/Hint : MP3
      Duration : 1h 43mn
      Bit rate mode : Constant
      Bit rate : 192 Kbps
      Channel(s) : 2 channels
      Sampling rate : 48.0 KHz
      Resolution : 16 bits
      Stream size : 143 MiB (11%)
      Alignment : Aligned on interleaves
      Interleave, duration : 33 ms (1.00 video frame)
      Interleave, preload duration : 504 ms
      Writing library : LAME3.97 
      Encoding settings : -m j -V 4 -q 2 -lowpass 18.6 -b 192
 
http://www.imdb.com/title/tt0091214/

Spanish audio; English .srt subtitles

Eliseo Subiela - Hombre mirando al sudeste (1986)